<svg xmlns="http://www.w3.org/2000/svg" viewBox="0 0 4477.5469 2039.88">
  <g transform="matrix(0.13333333,0,0,-0.13333333,0,2039.88)" fill="#000000" fill-rule="nonzero">
    <path d="m 13282.7,8558.81 c 32.5,54.97 123.1,72.15 181.8,86.28 953.6,15.81 1641.7,-1505.79 980.2,-2232.8 -73.7,-36.38 -163.4,-45.87 -237.1,0.67 -437.4,276.23 -690.7,866.21 -854.8,1337.33 -70.8,203.4 -168.2,602.5 -70.1,808.52 z m 19688.9,-859.87 c -23.2,231.16 -40.5,467.52 -86.3,695.29 -113,561.63 -384.6,1242.55 -842.2,1613.37 -176.6,143.1 -386.9,260.8 -622.3,238.4 -281.6,-26.7 -511.5,-238.7 -679.7,-450.41 -889.3,-1119.72 -1462.2,-3772.02 -1749.5,-5196.79 -523,-201 -1124.7,-358.3 -1667,-511.3 -709.3,-207.2 -1421.1,-405.5 -2135.3,-594.9 L 23681.5,3076 c -235.2,-64.2 -517.6,-148.3 -754.6,-197.6 -39.1,731 -58.6,1594.2 -117.5,2275.3 -84.6,1256.38 -686.8,3602.71 -1681.8,4413.01 C 18521.8,11689 17202.7,5451.67 16925.9,3908.5 c -123.7,-689.7 -192.5,-1464.8 -297.3,-2162 -1257.9,-36.8 -2516.4,-46.3 -3774.6,-28.6 -1041.1,18.9 -2081.8,53.1 -3121.86,102.4 -1658.05,52.9 -3313.63,166.9 -4963.29,341.6 -654.18,75.5 -1359.98,165.2 -1994.62,339.9 -395.78,109 -704.33,762.2 -869.27,1110.4 2156.48,-316.1 4336.03,-447.4 6514.86,-392.5 511.72,11.5 1404.28,32.2 1902.68,116.4 188.6,269.7 382.4,621.9 637.3,830.4 560.8,458.8 2516.7,742 3300.4,884.7 242.9,44.2 503.3,72.3 738.9,144 -366.3,22.8 -782.2,12.6 -1153.4,18.2 -1107.7,16.6 -2226.3,6.9 -3333.6,40.1 l -5517.09,193.44 c -948,39.47 -1869.15,104.71 -2824.28,127.4 47.64,34.8 684.63,402.98 712.88,406.64 156.74,20.37 624.43,2.75 803.57,-3.56 540.92,-18.42 1081.7,-40.2 1622.32,-65.34 2034.26,-103.26 4069.59,-183.6 6105.7,-241.02 969.7,-28.33 1946.6,-86.89 2917.2,-50.75 165.6,6.14 374,50.51 527.6,119.68 920,485.68 1174.1,2067.35 583.2,2869.5 -68,92.62 -147.9,175.81 -237.7,247.43 -654.5,44.2 -1310.7,58.16 -1966.5,41.89 985.4,1134.09 3584.8,1437.59 4995.8,1674.09 l -0.3,21.6 c -1390.7,-28.7 -2765.7,-241.6 -4128.6,-502 -1086.1,-207.47 -2471.4,-397.49 -3227.4,-1293.57 -1422.52,-9.6 -2845.12,1.81 -4267.35,34.23 -999.68,26.14 -1999.66,37.12 -2999.64,33.02 -521.86,2.49 -1059.12,16.38 -1578.95,0.91 244.04,200.08 519.17,353.82 793.99,506.49 2604.2,1446.82 6549.12,1704.72 9505.45,1995.82 90.5,-6.5 171.8,-6.8 258.9,22.3 -204.9,9 -468,20.8 -667.9,-6.6 -306.5,-7.4 -613.2,-8.1 -919.8,-1.9 210.8,151.8 570.3,339.6 806,471.1 353.1,199.1 705,400.5 1055.6,604.2 707.4,408.2 1428.7,791.7 2162.8,1149.8 906.2,434 1370.9,601.7 2368.3,763.5 1600.5,244.4 3223.7,305.1 4838,181 326.3,-22.7 708.9,-44.9 1031.1,-86.7 -400.3,-825.6 -747.5,-1670.7 -1097.8,-2518.7 -237.4,13.3 -474.1,30.1 -712.5,42.3 -1606.6,82 -3253.7,23.4 -4829.1,-322 -83.9,-18.4 -178.1,-40.5 -257.3,-70.5 2490.8,284.9 4821.1,29.8 7261.8,-420.7 1447,-211.9 2931.2,-247.5 4372.3,26.7 289.7,58.5 565.8,152.8 847.9,235.9 316.5,93.1 686.6,365.1 1010.5,347.5 2280.7,-123.4 3346.8,-1906.3 3110.8,-4087.66 z M 1445.54,6886.25 c -215.24,374.4 -455.606,1504.22 44.48,1744.38 756.18,-12.66 960.22,-1645.54 436.23,-2168 -254.41,-57.99 -375.26,240.22 -480.71,423.62 z M 29061.6,12484.9 c -923.4,-456.5 -1865.5,-599.1 -2885.8,-633.5 -134,-4.5 -558.5,-12.5 -674.5,12.8 l -1.2,26.2 60.7,59.5 c 401.6,159.7 1417.8,24 1339.6,787.4 -38.9,379.5 -638.4,418.8 -931.8,362.5 -721.8,-138.6 -1322.4,-627.2 -1739.6,-1216.9 -345.8,-2.4 -695.3,11.7 -1041.2,22.4 229.8,814.2 691.1,1687.1 1093.6,2428.3 1881.3,-254.1 3277.9,-682 4780.2,-1848.7 z m 1165.5,111.9 c -379.9,397.6 -680.6,609.5 -1130.8,914.9 -2108.8,1430.9 -4728.5,1695.4 -7209.1,1777.6 -321.7,10.6 -901.8,16.8 -1228.4,-4 -1420.5,-42.1 -2960.3,-195.4 -4338.4,-584.5 -243.8,-68.9 -522.4,-261.4 -758.7,-359.8 -1080.2,-551.6 -2127.2,-1202.4 -3132.9,-1879.6 -331.1,-224.2 -656.8,-456.1 -977,-695.5 -155.8,-115.1 -362.7,-284.9 -522.2,-382 -2613.04,-1.3 -5415.15,-250.7 -7915.99,-1037.3 C 2351.37,10138.3 1314.54,9699.71 779.27,9219.2 -331.891,7961.48 11.875,5643.97 612.355,4208.5 728.324,3924.7 879.586,3671.7 975.094,3409.2 845.148,2766.8 597.125,2582 0,2367.4 904.34,1277.7 1925.68,1129.4 3253.39,944.703 4588.67,758.902 5938.54,700.801 7284.12,635.902 c 1963.72,-92.601 3929.58,-131.5 5895.48,-116.703 1525.9,29.5 3051.5,76.102 4576.4,140 -248.8,1698.101 -30.4,3258.101 345.3,4921.511 256.3,1109.19 696.8,2717.17 1664.9,3419.65 630,457.12 1299.9,-254.39 1566.8,-789.6 945.3,-1896.19 1048.2,-4571.76 775.3,-6627.66 1222.6,361.5 2507.3,804.1 3736.3,1189.3 841.3,256.2 1679.4,522.5 2514.2,798.8 153.2,50.3 1247.9,393.5 1264.6,461.6 221.5,901.9 282.3,1927.54 493.2,2835.7 184.8,795.91 335.4,1563.92 828.6,2232.47 753.2,1008.13 1382.7,-25.74 1598,-783.73 233.4,-821.64 205.4,-1476.86 71.1,-2294.68 202,241.96 296.3,458.79 427.3,736.27 1207.3,2555.44 440.8,5659.67 -2814.5,5837.97" />
    <path d="m 14585.5,11134.2 c -1062.1,-15.7 -2123.7,-57.3 -3183.9,-124.7 -2333.84,-152.7 -4220.77,-437.5 -6354.87,-1462.52 1036.96,103.56 2171.92,150.45 3218.22,179.51 398.48,284.11 661.26,417.11 1136.83,564.71 770.12,238.9 1565.12,347.9 2362.52,445.2 1036,128.9 2076.5,218.3 3119.3,267.9 402.4,23.2 805.1,41.4 1208,54.5 133,5.1 303.2,21.5 432,20.8 l 349.1,2.7 c 57.5,13.4 131.6,21.4 191.4,29.8 -177.3,3.9 -354.6,5.9 -531.9,5.9 -651,1.5 -1290,21.5 -1946.7,16.2" />
    <path d="m 27045.4,10547.9 c -1212.1,63.2 -2425.5,97 -3639.2,101.3 -523,5.5 -1083.7,18.6 -1605.3,4.5 -340.2,-8.6 -835.2,-7.1 -1163.2,-37 628.9,-102.7 2504,-475.2 2881.2,-1003.54 505.3,-707.75 380.1,-2132.9 249.9,-2959.78 -142.3,-903.46 -440.9,-1554.78 -697.2,-2393.28 68.2,121.3 144.8,261.8 224.8,373.9 130.1,182.5 293.6,358.7 415.4,546.3 454.5,699.93 753.2,1506.55 933,2318.12 181,963.84 194.4,1485.49 159.8,2462.65 193.1,69.03 1049.2,123.83 1326.9,147.73 l 3535,274.3 c -210.2,36.7 -546.9,53.7 -766.8,69.8 -617.5,42.3 -1235.7,74 -1854.3,95" />
    <path d="M 27336.4,5523.36 C 26987.6,5235 24074.2,4744.6 24027.6,4693.6 c 964.7,12.6 1929.5,15.7 2894.3,9.3 l 783.4,3.1 c 185.7,1.3 448.1,-37 573.1,109.4 183,214.1 303.9,476 420,731.25 575.9,1304.53 855.8,2847.55 844.8,4271.73 -0.3,29.59 -4.8,63.49 -8.7,92.49 -351.4,-1695.18 -807.7,-3237.92 -2198.1,-4387.51" />
    <path d="m 32066.4,4595.2 c -67.2,-344.7 -251.9,-897.6 -555.8,-1087.1 -974.8,-258.4 -1229.6,3935.05 -195.4,4687.56 193.9,-6.08 342.2,-142.13 436.1,-312.14 527.8,-955.82 519.4,-2240.99 315.1,-3288.32 z m -526.7,4136.07 c -126.6,46.65 -172.2,37.79 -302.4,31.01 -1495,-408.79 -1379,-6164.38 256.5,-5845.38 359.4,152.3 547.6,435.6 692.8,797.8 501.5,1250.6 482.5,3005.06 -17.4,4255.64 -114,285.09 -333.2,651.76 -629.5,760.93" />
    <path d="M 16935.3,8682.92 C 16760.3,7193.83 16172,5625.78 15345.2,4377 c -248,-374.6 -527.4,-751.7 -880.6,-1033.5 -546.9,-436.3 -2854.2,-796 -3634.5,-915.6 -155.5,-23.8 -701.9,-76.1 -800.6,-133.5 l 29.7,-4.9 c 1109.4,-10.2 2219,-13.9 3328.5,-11.2 477.4,-1.1 954.7,7.2 1431.8,25 198,7.2 476.8,11.9 668.2,35.2 222.2,338.7 369.1,736.9 525.1,1122.7 659.1,1630.1 1093.4,3420.19 941.2,5188.09 -1,11.54 -11.9,24.46 -18.7,33.63" />
    <path d="M 20860.1,1379.7 C 20754.7,1171.6 20586.9,943.203 20358,878 c -510.9,-7 -800.3,681.9 -933.7,1095 -492.2,1523.5 -492.5,3390.71 136.9,4875.87 124,292.51 353.6,616.93 660.4,722.95 558.8,67.58 921.7,-826.24 1027,-1261.08 C 21629.4,4737.7 21603,2845.5 20860.1,1379.7 Z m -772.7,7029.23 c -363.2,-64.73 -646.5,-252.87 -847.7,-567.56 C 18308.8,6385.54 18236.1,4404.1 18498.9,2744.9 18641.6,1843.9 19210.1,-47.5 20347,23.1016 22584.8,544.801 22647.6,8594.08 20087.4,8408.93" />
    <path d="m 31127.1,7767.3 c -207.9,-263.78 -438.4,-1356.72 -364.4,-1690.94 l 19.8,-4.7 c 239.1,-58.93 255,-235.36 206.7,-462.12 -21.6,-101.22 -127,-135.51 -216.8,-161.32 -67.5,-113.4 64.6,-761.22 100.9,-906.12 51.8,-203.4 119.9,-402.2 203.8,-594.6 l 38.5,-50.8 c 33.7,-4.6 37.5,-11.8 67.3,16.3 325.1,306.9 396,1014.5 445.4,1425.64 69.2,575.86 -45.9,2087.43 -501.2,2428.66" />
    <path d="m 19817,6936.29 c -412.1,-541.45 -572,-1725.99 -592,-2408.49 98.4,-11.9 206.7,-30.6 305.7,-45.5 155.9,133.7 219.5,290.3 409.2,437.5 l -39,-51.3 c -289.3,-385 -402.2,-540.2 -333.8,-1023.8 41.9,-40.5 79.6,-64.9 126.8,-98.2 255.8,-125 382.9,-168.6 593.5,-355.6 -206.3,109.9 -412.1,221 -617.2,333.2 -170.7,82 -267.5,34.1 -443.1,-22.8 64.3,-381.3 78,-750.6 170.1,-1139.2 376.5,-1423.4 694.4,-1285.9 1127.2,1.3 332.7,989.4 355.7,3868.26 -707.4,4372.89" />
    <path d="m 30169.9,3925.9 c -22.7,78.5 -47.7,272.9 -81.9,328.2 -5.1,-392.3 -8.2,-784.6 -9.1,-1177 -591.5,2.9 -1249.3,9.1 -1825.2,-124.6 l 1030.4,-45.4 c 415.6,-28.9 1335.4,-45.7 1749.5,-21.8 -494.9,202.9 -715.1,526.3 -863.7,1040.6" />
    <path d="m 18444.7,1180 c -60.8,103.6 -245.9,466.6 -310.1,539.1 6.1,-403.8 164.3,-1017.498 297.8,-1392.401 -587.2,0.301 -1174.4,-6.5 -1761.4,-20.199 -169.2,-3.898 -640.3,-7.398 -781.2,-34.699 503.1,-44.5 1006.6,-83.899 1510.5,-118 L 18735.7,53 C 19058.5,28.3008 19397.5,-4.5 19719.5,0.601563 19102.3,364.102 18825.9,529.602 18444.7,1180" />
  </g>
</svg>
